# xmcd
#
# Track frame offsets: 
#        182
#        38754
#        76694
#        107587
#        124003
#        175728
#        203986
#        246269
#
# Disc length: 3660 seconds
#
# Revision: 4
# Processed by: cddbd v1.5.2PL0 Copyright (c) Steve Scherf et al.
# Submitted via: ExactAudioCopy v0.99pb5
#
DISCID=5d0e4a08
DTITLE=Kamal - Reiki Whale Dreaming
DYEAR=2005
DGENRE=New Age
TTITLE0=Northern lights
TTITLE1=The yearning
TTITLE2=Initiation
TTITLE3=Raga for a whale
TTITLE4=The whale who dreamt the sea
TTITLE5=A whispering dream
TTITLE6=The healing waters
TTITLE7=Coming home
EXTD=YEAR: 2005
EXTT0=
EXTT1=
EXTT2=
EXTT3=
EXTT4=
EXTT5=
EXTT6=
EXTT7=
PLAYORDER=
